<?xml version="1.0" encoding="utf-8"?>
<!-- Generator: Adobe Illustrator 15.1.0, SVG Export Plug-In . SVG Version: 6.00 Build 0)  -->
<!DOCTYPE svg PUBLIC "-//W3C//DTD SVG 1.1//EN" "http://www.w3.org/Graphics/SVG/1.1/DTD/svg11.dtd">
<svg version="1.1" id="Layer_1" xmlns="http://www.w3.org/2000/svg" xmlns:xlink="http://www.w3.org/1999/xlink" x="0px" y="0px"
	 width="841.89px" height="595.28px" viewBox="0 0 841.89 595.28" enable-background="new 0 0 841.89 595.28" xml:space="preserve">
<g>
	<g>
		<polygon fill="#758291" points="231.121,157.353 215.535,175.165 245.595,158.835 		"/>
		<polygon fill="#758291" points="262.678,164.773 269.731,144.363 245.595,158.835 		"/>
		<polygon fill="#758291" points="196.841,253.846 184.16,237.158 163.786,238.829 		"/>
		<polygon fill="#758291" points="149.559,262.568 140.427,281.211 172.796,266.527 		"/>
		<polygon fill="#758291" points="172.796,266.527 162.02,293.078 182.823,281.46 		"/>
		<polygon fill="#758291" points="162.02,316.312 162.02,293.078 132.082,313.58 		"/>
		<polygon fill="#758291" points="202.175,207.076 206.259,221.179 222.604,209.673 		"/>
		<polygon fill="#758291" points="213.844,306.906 207.505,286.882 182.807,304.695 		"/>
		<polygon fill="#758291" points="232.694,322.467 231.759,301.359 213.844,306.906 		"/>
		<polygon fill="#758291" points="240.398,222.292 238.915,247.896 262.308,227.487 		"/>
		<polygon fill="#758291" points="234.091,276.098 238.915,247.896 224.404,258.227 		"/>
		<polygon fill="#758291" points="258.221,281.46 258.597,258.286 234.091,276.098 		"/>
		<polygon fill="#758291" points="275.651,196.685 286.8,223.379 294.59,216.353 		"/>
		<polygon fill="#758291" points="261.923,201.883 262.293,227.487 286.8,223.381 		"/>
		<polygon fill="#758291" points="286.8,223.379 289.383,242.333 310.549,233.053 		"/>
		<polygon fill="#758291" points="283.87,344.243 280.188,320.425 269.344,338.813 		"/>
	</g>
	<g>
		<polygon fill="#605E5C" points="222.604,209.673 224.417,188.531 202.175,207.076 		"/>
		<polygon fill="#605E5C" points="269.731,144.363 265.213,125.416 250.789,138.8 		"/>
		<polygon fill="#605E5C" points="245.595,158.835 243.476,172.162 262.678,164.773 		"/>
		<polygon fill="#605E5C" points="261.937,201.883 263.05,181.474 245.965,186.296 		"/>
		<polygon fill="#605E5C" points="173.13,223.477 163.786,238.829 184.16,237.158 		"/>
		<polygon fill="#605E5C" points="162.02,293.078 162.02,316.312 182.823,304.695 		"/>
		<polygon fill="#605E5C" points="240.398,222.292 245.965,186.296 222.587,209.673 		"/>
		<polygon fill="#605E5C" points="262.308,227.487 261.937,201.883 240.398,222.292 		"/>
		<polygon fill="#605E5C" points="238.915,247.896 240.398,222.292 214.794,239.732 		"/>
		<polygon fill="#605E5C" points="234.091,276.098 244.852,295.022 258.221,281.46 		"/>
		<polygon fill="#605E5C" points="262.293,227.487 258.583,258.286 289.383,242.333 		"/>
		<polygon fill="#605E5C" points="309.437,271.649 314.63,253.462 284.559,265.708 		"/>
		<polygon fill="#605E5C" points="336.287,288.201 337.253,264.966 309.421,271.649 		"/>
	</g>
	<g>
		<polygon fill="#650000" points="162.02,293.078 172.796,266.527 140.427,281.211 		"/>
		<polygon fill="#650000" points="189.814,367.646 195.156,383.664 224.523,370.646 		"/>
		<polygon fill="#650000" points="232.679,322.467 231.866,339.614 246.529,325.139 		"/>
		<polygon fill="#650000" points="257.114,413.771 259.018,395.468 234.462,404.498 		"/>
		<polygon fill="#650000" points="238.915,421.191 234.462,404.498 215.535,427.498 		"/>
		<polygon fill="#650000" points="312.086,301.221 309.437,271.649 286.8,293.078 		"/>
		<polygon fill="#650000" points="307.744,369.722 306.338,346.388 280.477,363.674 		"/>
		<polygon fill="#650000" points="336.287,308.335 328.672,340.47 351.242,328.153 		"/>
	</g>
	<g>
		<polygon fill="#FF339A" points="160.449,345.951 162.02,316.312 135.087,331.938 		"/>
		<polygon fill="#FF339A" points="188.482,349.623 189.814,367.646 214.177,354.965 		"/>
		<polygon fill="#FF339A" points="284.559,265.708 286.8,293.078 309.437,271.649 		"/>
		<polygon fill="#FF339A" points="306.338,346.388 306.468,322.484 283.87,344.243 		"/>
		<polygon fill="#FF339A" points="310.536,233.053 314.615,253.462 325.005,249.752 		"/>
		<polygon fill="#FF339A" points="357.679,299.849 349.198,281.46 336.287,288.201 		"/>
		<polygon fill="#FF339A" points="356.328,350.475 351.242,328.153 328.672,340.47 		"/>
	</g>
	<g>
		<polygon fill="#FF7E00" points="162.02,362.775 160.449,345.951 145.431,348.621 		"/>
		<polygon fill="#FF7E00" points="182.807,304.695 184.81,325.595 213.844,306.906 		"/>
		<polygon fill="#FF7E00" points="213.844,306.906 215.512,335.942 232.694,322.467 		"/>
		<polygon fill="#FF7E00" points="244.852,295.022 258.954,318.033 269.392,307.742 		"/>
		<polygon fill="#FF7E00" points="248.565,386.678 234.462,404.498 259.018,395.468 		"/>
		<polygon fill="#FF7E00" points="258.583,258.286 258.202,281.46 284.559,265.708 		"/>
		<polygon fill="#FF7E00" points="286.8,293.078 280.188,320.425 312.086,301.221 		"/>
		<polygon fill="#FF7E00" points="280.477,363.674 283.87,344.243 270.086,353.282 		"/>
		<polygon fill="#FF7E00" points="301.644,392.62 307.744,369.722 286.8,386.01 		"/>
		<polygon fill="#FF7E00" points="336.287,308.335 336.287,288.201 312.072,301.221 		"/>
		<polygon fill="#FF7E00" points="306.453,322.484 306.322,346.388 328.672,340.47 		"/>
		<polygon fill="#FF7E00" points="328.672,340.47 333.342,357.836 356.328,350.475 		"/>
	</g>
	<g>
		<polygon fill="#ED0000" points="182.823,304.695 182.823,281.46 162.02,293.078 		"/>
		<polygon fill="#ED0000" points="132.082,313.58 135.087,331.938 162.02,316.312 		"/>
		<polygon fill="#ED0000" points="184.828,325.595 182.823,304.695 162.02,316.312 		"/>
		<polygon fill="#ED0000" points="135.087,331.938 145.431,348.621 160.449,345.951 		"/>
		<polygon fill="#ED0000" points="188.498,349.623 184.828,325.595 160.449,345.951 		"/>
		<polygon fill="#ED0000" points="189.832,367.646 188.498,349.623 162.02,362.775 		"/>
		<polygon fill="#ED0000" points="195.171,383.664 189.832,367.646 178.137,374.318 		"/>
		<polygon fill="#ED0000" points="231.759,301.359 219.533,284.213 207.505,286.882 		"/>
		<polygon fill="#ED0000" points="215.512,335.942 213.844,306.906 184.81,325.595 		"/>
		<polygon fill="#ED0000" points="231.882,339.614 232.694,322.467 215.512,335.942 		"/>
		<polygon fill="#ED0000" points="214.177,354.965 215.512,335.942 188.482,349.623 		"/>
		<polygon fill="#ED0000" points="240.225,351.29 231.882,339.614 214.177,354.965 		"/>
		<polygon fill="#ED0000" points="224.523,370.646 214.177,354.965 189.814,367.646 		"/>
		<polygon fill="#ED0000" points="207.505,389.334 224.523,370.646 195.156,383.664 		"/>
		<polygon fill="#ED0000" points="246.529,325.139 232.679,322.467 232.694,322.467 231.759,301.359 		"/>
		<polygon fill="#ED0000" points="248.22,338.275 246.529,325.139 231.866,339.614 		"/>
		<polygon fill="#ED0000" points="234.462,404.498 238.915,421.191 257.114,413.771 		"/>
		<polygon fill="#ED0000" points="258.202,281.46 269.375,307.742 286.8,293.078 		"/>
		<polygon fill="#ED0000" points="269.375,307.742 269.344,338.813 280.188,320.425 		"/>
		<polygon fill="#ED0000" points="306.468,322.484 312.086,301.221 280.188,320.425 		"/>
		<polygon fill="#ED0000" points="283.87,344.243 280.477,363.674 306.338,346.388 		"/>
		<polygon fill="#ED0000" points="270.086,353.282 261.18,370.725 280.477,363.674 		"/>
		<polygon fill="#ED0000" points="280.477,363.674 286.8,386.01 307.744,369.722 		"/>
		<polygon fill="#ED0000" points="261.18,370.725 258.999,395.468 286.8,386.01 		"/>
		<polygon fill="#ED0000" points="258.999,395.468 257.099,413.771 280.105,404.12 		"/>
		<polygon fill="#ED0000" points="351.242,328.153 357.679,299.849 336.287,308.335 		"/>
		<polygon fill="#ED0000" points="328.672,340.47 336.287,308.335 306.453,322.484 		"/>
		<polygon fill="#ED0000" points="333.342,357.836 328.672,340.47 306.322,346.388 		"/>
		<polygon fill="#ED0000" points="343.947,363.674 356.328,350.475 333.342,357.836 		"/>
		<polygon fill="#ED0000" points="307.729,369.722 301.629,392.62 327.606,375.923 		"/>
	</g>
	<g>
		<polygon fill="#AEB0B2" points="224.417,188.531 215.55,175.165 202.175,192.975 		"/>
		<polygon fill="#AEB0B2" points="245.595,158.835 250.789,138.8 231.121,157.353 		"/>
		<polygon fill="#AEB0B2" points="243.476,172.162 245.595,158.835 215.535,175.165 		"/>
		<polygon fill="#AEB0B2" points="263.05,181.474 262.678,164.773 243.476,172.162 		"/>
		<polygon fill="#AEB0B2" points="263.034,181.474 261.923,201.881 275.651,196.685 		"/>
		<polygon fill="#AEB0B2" points="163.786,238.829 172.796,266.527 196.841,253.846 		"/>
		<polygon fill="#AEB0B2" points="140.427,281.211 132.082,313.58 162.02,293.078 		"/>
		<polygon fill="#AEB0B2" points="162.02,316.312 160.449,345.951 184.828,325.595 		"/>
		<polygon fill="#AEB0B2" points="214.809,239.732 222.604,209.673 206.259,221.179 		"/>
		<polygon fill="#AEB0B2" points="182.807,281.46 182.807,304.695 207.505,286.882 		"/>
		<polygon fill="#AEB0B2" points="258.597,258.286 262.308,227.487 238.915,247.896 		"/>
		<polygon fill="#AEB0B2" points="269.392,307.742 258.221,281.46 244.852,295.022 		"/>
		<polygon fill="#AEB0B2" points="314.63,253.462 310.549,233.053 289.383,242.333 		"/>
		<polygon fill="#AEB0B2" points="337.253,264.966 325.005,249.752 314.615,253.462 		"/>
		<polygon fill="#AEB0B2" points="357.663,299.849 351.227,328.153 363.229,317.289 		"/>
	</g>
	<g>
		<polygon fill="#BD0000" points="162.02,362.775 178.137,374.318 189.832,367.646 		"/>
		<polygon fill="#BD0000" points="207.505,286.882 213.844,306.906 231.759,301.359 		"/>
		<polygon fill="#BD0000" points="184.81,325.595 188.482,349.623 215.512,335.942 		"/>
		<polygon fill="#BD0000" points="215.512,335.942 214.177,354.965 231.882,339.614 		"/>
		<polygon fill="#BD0000" points="269.359,338.813 269.392,307.742 258.954,318.033 		"/>
		<polygon fill="#BD0000" points="289.383,242.333 284.559,265.708 314.63,253.462 		"/>
		<polygon fill="#BD0000" points="280.188,320.425 283.87,344.243 306.468,322.484 		"/>
		<polygon fill="#BD0000" points="280.105,404.12 286.8,386.01 258.999,395.468 		"/>
		<polygon fill="#BD0000" points="306.322,346.388 307.729,369.722 333.342,357.836 		"/>
		<polygon fill="#BD0000" points="363.295,334.731 363.229,317.289 351.227,328.153 		"/>
	</g>
	<g>
		<polygon fill="#FFCF00" points="160.449,345.951 162.02,362.775 188.498,349.623 		"/>
		<polygon fill="#FFCF00" points="207.505,286.882 207.505,268.196 182.807,281.46 		"/>
		<polygon fill="#FFCF00" points="214.177,354.965 224.523,370.646 240.225,351.29 		"/>
		<polygon fill="#FFCF00" points="259.018,395.468 261.196,370.725 248.565,386.678 		"/>
		<polygon fill="#FFCF00" points="312.072,301.221 306.453,322.484 336.287,308.335 		"/>
		<polygon fill="#FFCF00" points="327.606,375.923 333.342,357.836 307.729,369.722 		"/>
		<polygon fill="#FFCF00" points="351.227,328.153 356.315,350.475 363.295,334.731 		"/>
	</g>
	<g>
		<polygon fill="#464749" points="202.175,192.975 202.175,207.076 224.417,188.531 		"/>
		<polygon fill="#464749" points="250.789,138.8 245.595,158.835 269.731,144.363 		"/>
		<polygon fill="#464749" points="215.535,175.165 224.404,188.531 243.476,172.162 		"/>
		<polygon fill="#464749" points="172.796,266.527 163.786,238.829 149.559,262.568 		"/>
		<polygon fill="#464749" points="182.823,281.46 196.841,253.846 172.796,266.527 		"/>
		<polygon fill="#464749" points="207.505,268.196 207.505,286.882 219.533,284.213 		"/>
		<polygon fill="#464749" points="245.965,186.296 240.398,222.292 261.937,201.883 		"/>
		<polygon fill="#464749" points="222.587,209.673 214.794,239.732 240.398,222.292 		"/>
		<polygon fill="#464749" points="214.794,239.732 224.404,258.227 238.915,247.896 		"/>
		<polygon fill="#464749" points="238.915,247.896 234.091,276.098 258.597,258.286 		"/>
		<polygon fill="#464749" points="231.866,339.614 240.211,351.29 248.22,338.275 		"/>
		<polygon fill="#464749" points="310.549,233.053 294.59,216.353 286.8,223.381 		"/>
		<polygon fill="#464749" points="289.383,242.333 286.8,223.379 262.293,227.487 		"/>
		<polygon fill="#464749" points="286.8,293.078 284.559,265.708 258.202,281.46 		"/>
		<polygon fill="#464749" points="286.8,386.01 280.477,363.674 261.18,370.725 		"/>
		<polygon fill="#464749" points="314.615,253.462 309.421,271.649 337.253,264.966 		"/>
		<polygon fill="#464749" points="309.421,271.649 312.072,301.221 336.287,288.201 		"/>
		<polygon fill="#464749" points="336.287,288.201 336.287,308.335 357.679,299.849 		"/>
		<polygon fill="#464749" points="333.342,357.836 327.606,375.923 343.947,363.674 		"/>
		<polygon fill="#464749" points="265.198,125.416 269.714,144.363 277.136,128.78 		"/>
	</g>
	<g>
		<polygon points="243.476,172.162 245.965,186.296 263.05,181.474 		"/>
		<polygon points="277.136,128.78 286.041,107.627 265.198,125.416 		"/>
		<polygon points="196.828,253.846 182.807,281.46 207.505,268.196 		"/>
		<polygon points="286.8,223.381 275.651,196.685 261.923,201.883 		"/>
		<polygon points="284.559,265.708 289.383,242.333 258.583,258.286 		"/>
		<polygon points="280.188,320.425 286.8,293.078 269.375,307.742 		"/>
		<polygon points="269.344,338.813 270.086,353.282 283.87,344.243 		"/>
		<polygon points="286.8,386.01 280.105,404.12 301.644,392.62 		"/>
		<polygon points="337.253,264.966 336.287,288.201 349.198,281.46 		"/>
		<polygon points="224.404,188.531 222.587,209.673 245.965,186.296 		"/>
	</g>
	<g>
		<polygon fill="#FFFF00" points="224.404,188.531 245.965,186.296 243.476,172.162 		"/>
	</g>
	<g>
		<polygon fill="#758291" points="231.121,157.353 215.535,175.165 245.595,158.835 		"/>
		<polygon fill="#758291" points="262.678,164.773 269.731,144.363 245.595,158.835 		"/>
		<polygon fill="#758291" points="196.841,253.846 184.16,237.158 163.786,238.829 		"/>
		<polygon fill="#758291" points="149.559,262.568 140.427,281.211 172.796,266.527 		"/>
		<polygon fill="#758291" points="172.796,266.527 162.02,293.078 182.823,281.46 		"/>
		<polygon fill="#758291" points="162.02,316.312 162.02,293.078 132.082,313.58 		"/>
		<polygon fill="#758291" points="202.175,207.076 206.259,221.179 222.604,209.673 		"/>
		<polygon fill="#758291" points="213.844,306.906 207.505,286.882 182.807,304.695 		"/>
		<polygon fill="#758291" points="232.694,322.467 231.759,301.359 213.844,306.906 		"/>
		<polygon fill="#758291" points="240.398,222.292 238.915,247.896 262.308,227.487 		"/>
		<polygon fill="#758291" points="234.091,276.098 238.915,247.896 224.404,258.227 		"/>
		<polygon fill="#758291" points="258.221,281.46 258.597,258.286 234.091,276.098 		"/>
		<polygon fill="#758291" points="275.651,196.685 286.8,223.379 294.59,216.353 		"/>
		<polygon fill="#758291" points="261.923,201.883 262.293,227.487 286.8,223.381 		"/>
		<polygon fill="#758291" points="286.8,223.379 289.383,242.333 310.549,233.053 		"/>
		<polygon fill="#758291" points="283.87,344.243 280.188,320.425 269.344,338.813 		"/>
	</g>
	<g>
		<polygon fill="#605E5C" points="222.604,209.673 224.417,188.531 202.175,207.076 		"/>
		<polygon fill="#605E5C" points="269.731,144.363 265.213,125.416 250.789,138.8 		"/>
		<polygon fill="#605E5C" points="245.595,158.835 243.476,172.162 262.678,164.773 		"/>
		<polygon fill="#605E5C" points="261.937,201.883 263.05,181.474 245.965,186.296 		"/>
		<polygon fill="#605E5C" points="173.13,223.477 163.786,238.829 184.16,237.158 		"/>
		<polygon fill="#605E5C" points="162.02,293.078 162.02,316.312 182.823,304.695 		"/>
		<polygon fill="#605E5C" points="240.398,222.292 245.965,186.296 222.587,209.673 		"/>
		<polygon fill="#605E5C" points="262.308,227.487 261.937,201.883 240.398,222.292 		"/>
		<polygon fill="#605E5C" points="238.915,247.896 240.398,222.292 214.794,239.732 		"/>
		<polygon fill="#605E5C" points="234.091,276.098 244.852,295.022 258.221,281.46 		"/>
		<polygon fill="#605E5C" points="262.293,227.487 258.583,258.286 289.383,242.333 		"/>
		<polygon fill="#605E5C" points="309.437,271.649 314.63,253.462 284.559,265.708 		"/>
		<polygon fill="#605E5C" points="336.287,288.201 337.253,264.966 309.421,271.649 		"/>
	</g>
	<g>
		<polygon fill="#650000" points="162.02,293.078 172.796,266.527 140.427,281.211 		"/>
		<polygon fill="#650000" points="189.814,367.646 195.156,383.664 224.523,370.646 		"/>
		<polygon fill="#650000" points="232.679,322.467 231.866,339.614 246.529,325.139 		"/>
		<polygon fill="#650000" points="257.114,413.771 259.018,395.468 234.462,404.498 		"/>
		<polygon fill="#650000" points="238.915,421.191 234.462,404.498 215.535,427.498 		"/>
		<polygon fill="#650000" points="312.086,301.221 309.437,271.649 286.8,293.078 		"/>
		<polygon fill="#650000" points="307.744,369.722 306.338,346.388 280.477,363.674 		"/>
		<polygon fill="#650000" points="336.287,308.335 328.672,340.47 351.242,328.153 		"/>
	</g>
	<g>
		<polygon fill="#FF339A" points="160.449,345.951 162.02,316.312 135.087,331.938 		"/>
		<polygon fill="#FF339A" points="188.482,349.623 189.814,367.646 214.177,354.965 		"/>
		<polygon fill="#FF339A" points="284.559,265.708 286.8,293.078 309.437,271.649 		"/>
		<polygon fill="#FF339A" points="306.338,346.388 306.468,322.484 283.87,344.243 		"/>
		<polygon fill="#FF339A" points="310.536,233.053 314.615,253.462 325.005,249.752 		"/>
		<polygon fill="#FF339A" points="357.679,299.849 349.198,281.46 336.287,288.201 		"/>
		<polygon fill="#FF339A" points="356.328,350.475 351.242,328.153 328.672,340.47 		"/>
	</g>
	<g>
		<polygon fill="#FF7E00" points="162.02,362.775 160.449,345.951 145.431,348.621 		"/>
		<polygon fill="#FF7E00" points="182.807,304.695 184.81,325.595 213.844,306.906 		"/>
		<polygon fill="#FF7E00" points="213.844,306.906 215.512,335.942 232.694,322.467 		"/>
		<polygon fill="#FF7E00" points="244.852,295.022 258.954,318.033 269.392,307.742 		"/>
		<polygon fill="#FF7E00" points="248.565,386.678 234.462,404.498 259.018,395.468 		"/>
		<polygon fill="#FF7E00" points="258.583,258.286 258.202,281.46 284.559,265.708 		"/>
		<polygon fill="#FF7E00" points="286.8,293.078 280.188,320.425 312.086,301.221 		"/>
		<polygon fill="#FF7E00" points="280.477,363.674 283.87,344.243 270.086,353.282 		"/>
		<polygon fill="#FF7E00" points="301.644,392.62 307.744,369.722 286.8,386.01 		"/>
		<polygon fill="#FF7E00" points="336.287,308.335 336.287,288.201 312.072,301.221 		"/>
		<polygon fill="#FF7E00" points="306.453,322.484 306.322,346.388 328.672,340.47 		"/>
		<polygon fill="#FF7E00" points="328.672,340.47 333.342,357.836 356.328,350.475 		"/>
	</g>
	<g>
		<polygon fill="#ED0000" points="182.823,304.695 182.823,281.46 162.02,293.078 		"/>
		<polygon fill="#ED0000" points="132.082,313.58 135.087,331.938 162.02,316.312 		"/>
		<polygon fill="#ED0000" points="184.828,325.595 182.823,304.695 162.02,316.312 		"/>
		<polygon fill="#ED0000" points="135.087,331.938 145.431,348.621 160.449,345.951 		"/>
		<polygon fill="#ED0000" points="188.498,349.623 184.828,325.595 160.449,345.951 		"/>
		<polygon fill="#ED0000" points="189.832,367.646 188.498,349.623 162.02,362.775 		"/>
		<polygon fill="#ED0000" points="195.171,383.664 189.832,367.646 178.137,374.318 		"/>
		<polygon fill="#ED0000" points="231.759,301.359 219.533,284.213 207.505,286.882 		"/>
		<polygon fill="#ED0000" points="215.512,335.942 213.844,306.906 184.81,325.595 		"/>
		<polygon fill="#ED0000" points="231.882,339.614 232.694,322.467 215.512,335.942 		"/>
		<polygon fill="#ED0000" points="214.177,354.965 215.512,335.942 188.482,349.623 		"/>
		<polygon fill="#ED0000" points="240.225,351.29 231.882,339.614 214.177,354.965 		"/>
		<polygon fill="#ED0000" points="224.523,370.646 214.177,354.965 189.814,367.646 		"/>
		<polygon fill="#ED0000" points="207.505,389.334 224.523,370.646 195.156,383.664 		"/>
		<polygon fill="#ED0000" points="246.529,325.139 232.679,322.467 232.694,322.467 231.759,301.359 		"/>
		<polygon fill="#ED0000" points="248.22,338.275 246.529,325.139 231.866,339.614 		"/>
		<polygon fill="#ED0000" points="234.462,404.498 238.915,421.191 257.114,413.771 		"/>
		<polygon fill="#ED0000" points="258.202,281.46 269.375,307.742 286.8,293.078 		"/>
		<polygon fill="#ED0000" points="269.375,307.742 269.344,338.813 280.188,320.425 		"/>
		<polygon fill="#ED0000" points="306.468,322.484 312.086,301.221 280.188,320.425 		"/>
		<polygon fill="#ED0000" points="283.87,344.243 280.477,363.674 306.338,346.388 		"/>
		<polygon fill="#ED0000" points="270.086,353.282 261.18,370.725 280.477,363.674 		"/>
		<polygon fill="#ED0000" points="280.477,363.674 286.8,386.01 307.744,369.722 		"/>
		<polygon fill="#ED0000" points="261.18,370.725 258.999,395.468 286.8,386.01 		"/>
		<polygon fill="#ED0000" points="258.999,395.468 257.099,413.771 280.105,404.12 		"/>
		<polygon fill="#ED0000" points="351.242,328.153 357.679,299.849 336.287,308.335 		"/>
		<polygon fill="#ED0000" points="328.672,340.47 336.287,308.335 306.453,322.484 		"/>
		<polygon fill="#ED0000" points="333.342,357.836 328.672,340.47 306.322,346.388 		"/>
		<polygon fill="#ED0000" points="343.947,363.674 356.328,350.475 333.342,357.836 		"/>
		<polygon fill="#ED0000" points="307.729,369.722 301.629,392.62 327.606,375.923 		"/>
	</g>
	<g>
		<polygon fill="#AEB0B2" points="224.417,188.531 215.55,175.165 202.175,192.975 		"/>
		<polygon fill="#AEB0B2" points="245.595,158.835 250.789,138.8 231.121,157.353 		"/>
		<polygon fill="#AEB0B2" points="243.476,172.162 245.595,158.835 215.535,175.165 		"/>
		<polygon fill="#AEB0B2" points="263.05,181.474 262.678,164.773 243.476,172.162 		"/>
		<polygon fill="#AEB0B2" points="263.034,181.474 261.923,201.881 275.651,196.685 		"/>
		<polygon fill="#AEB0B2" points="163.786,238.829 172.796,266.527 196.841,253.846 		"/>
		<polygon fill="#AEB0B2" points="140.427,281.211 132.082,313.58 162.02,293.078 		"/>
		<polygon fill="#AEB0B2" points="162.02,316.312 160.449,345.951 184.828,325.595 		"/>
		<polygon fill="#AEB0B2" points="214.809,239.732 222.604,209.673 206.259,221.179 		"/>
		<polygon fill="#AEB0B2" points="182.807,281.46 182.807,304.695 207.505,286.882 		"/>
		<polygon fill="#AEB0B2" points="258.597,258.286 262.308,227.487 238.915,247.896 		"/>
		<polygon fill="#AEB0B2" points="269.392,307.742 258.221,281.46 244.852,295.022 		"/>
		<polygon fill="#AEB0B2" points="314.63,253.462 310.549,233.053 289.383,242.333 		"/>
		<polygon fill="#AEB0B2" points="337.253,264.966 325.005,249.752 314.615,253.462 		"/>
		<polygon fill="#AEB0B2" points="357.663,299.849 351.227,328.153 363.229,317.289 		"/>
	</g>
	<g>
		<polygon fill="#BD0000" points="162.02,362.775 178.137,374.318 189.832,367.646 		"/>
		<polygon fill="#BD0000" points="207.505,286.882 213.844,306.906 231.759,301.359 		"/>
		<polygon fill="#BD0000" points="184.81,325.595 188.482,349.623 215.512,335.942 		"/>
		<polygon fill="#BD0000" points="215.512,335.942 214.177,354.965 231.882,339.614 		"/>
		<polygon fill="#BD0000" points="269.359,338.813 269.392,307.742 258.954,318.033 		"/>
		<polygon fill="#BD0000" points="289.383,242.333 284.559,265.708 314.63,253.462 		"/>
		<polygon fill="#BD0000" points="280.188,320.425 283.87,344.243 306.468,322.484 		"/>
		<polygon fill="#BD0000" points="280.105,404.12 286.8,386.01 258.999,395.468 		"/>
		<polygon fill="#BD0000" points="306.322,346.388 307.729,369.722 333.342,357.836 		"/>
		<polygon fill="#BD0000" points="363.295,334.731 363.229,317.289 351.227,328.153 		"/>
	</g>
	<g>
		<polygon fill="#FFCF00" points="160.449,345.951 162.02,362.775 188.498,349.623 		"/>
		<polygon fill="#FFCF00" points="207.505,286.882 207.505,268.196 182.807,281.46 		"/>
		<polygon fill="#FFCF00" points="214.177,354.965 224.523,370.646 240.225,351.29 		"/>
		<polygon fill="#FFCF00" points="259.018,395.468 261.196,370.725 248.565,386.678 		"/>
		<polygon fill="#FFCF00" points="312.072,301.221 306.453,322.484 336.287,308.335 		"/>
		<polygon fill="#FFCF00" points="327.606,375.923 333.342,357.836 307.729,369.722 		"/>
		<polygon fill="#FFCF00" points="351.227,328.153 356.315,350.475 363.295,334.731 		"/>
	</g>
	<g>
		<polygon fill="#464749" points="202.175,192.975 202.175,207.076 224.417,188.531 		"/>
		<polygon fill="#464749" points="250.789,138.8 245.595,158.835 269.731,144.363 		"/>
		<polygon fill="#464749" points="215.535,175.165 224.404,188.531 243.476,172.162 		"/>
		<polygon fill="#464749" points="172.796,266.527 163.786,238.829 149.559,262.568 		"/>
		<polygon fill="#464749" points="182.823,281.46 196.841,253.846 172.796,266.527 		"/>
		<polygon fill="#464749" points="207.505,268.196 207.505,286.882 219.533,284.213 		"/>
		<polygon fill="#464749" points="245.965,186.296 240.398,222.292 261.937,201.883 		"/>
		<polygon fill="#464749" points="222.587,209.673 214.794,239.732 240.398,222.292 		"/>
		<polygon fill="#464749" points="214.794,239.732 224.404,258.227 238.915,247.896 		"/>
		<polygon fill="#464749" points="238.915,247.896 234.091,276.098 258.597,258.286 		"/>
		<polygon fill="#464749" points="231.866,339.614 240.211,351.29 248.22,338.275 		"/>
		<polygon fill="#464749" points="310.549,233.053 294.59,216.353 286.8,223.381 		"/>
		<polygon fill="#464749" points="289.383,242.333 286.8,223.379 262.293,227.487 		"/>
		<polygon fill="#464749" points="286.8,293.078 284.559,265.708 258.202,281.46 		"/>
		<polygon fill="#464749" points="286.8,386.01 280.477,363.674 261.18,370.725 		"/>
		<polygon fill="#464749" points="314.615,253.462 309.421,271.649 337.253,264.966 		"/>
		<polygon fill="#464749" points="309.421,271.649 312.072,301.221 336.287,288.201 		"/>
		<polygon fill="#464749" points="336.287,288.201 336.287,308.335 357.679,299.849 		"/>
		<polygon fill="#464749" points="333.342,357.836 327.606,375.923 343.947,363.674 		"/>
		<polygon fill="#464749" points="265.198,125.416 269.714,144.363 277.136,128.78 		"/>
	</g>
	<g>
		<polygon points="243.476,172.162 245.965,186.296 263.05,181.474 		"/>
		<polygon points="277.136,128.78 286.041,107.627 265.198,125.416 		"/>
		<polygon points="196.828,253.846 182.807,281.46 207.505,268.196 		"/>
		<polygon points="286.8,223.381 275.651,196.685 261.923,201.883 		"/>
		<polygon points="284.559,265.708 289.383,242.333 258.583,258.286 		"/>
		<polygon points="280.188,320.425 286.8,293.078 269.375,307.742 		"/>
		<polygon points="269.344,338.813 270.086,353.282 283.87,344.243 		"/>
		<polygon points="286.8,386.01 280.105,404.12 301.644,392.62 		"/>
		<polygon points="337.253,264.966 336.287,288.201 349.198,281.46 		"/>
		<polygon points="224.404,188.531 222.587,209.673 245.965,186.296 		"/>
	</g>
	<g>
		<polygon fill="#FFFF00" points="224.404,188.531 245.965,186.296 243.476,172.162 		"/>
	</g>
	<g>
		<polygon fill="#758291" points="231.121,157.353 215.535,175.165 245.595,158.835 		"/>
		<polygon fill="#758291" points="262.678,164.773 269.731,144.363 245.595,158.835 		"/>
		<polygon fill="#758291" points="196.841,253.846 184.16,237.158 163.786,238.829 		"/>
		<polygon fill="#758291" points="149.559,262.568 140.427,281.211 172.796,266.527 		"/>
		<polygon fill="#758291" points="172.796,266.527 162.02,293.078 182.823,281.46 		"/>
		<polygon fill="#758291" points="162.02,316.312 162.02,293.078 132.082,313.58 		"/>
		<polygon fill="#758291" points="202.175,207.076 206.259,221.179 222.604,209.673 		"/>
		<polygon fill="#758291" points="213.844,306.906 207.505,286.882 182.807,304.695 		"/>
		<polygon fill="#758291" points="232.694,322.467 231.759,301.359 213.844,306.906 		"/>
		<polygon fill="#758291" points="240.398,222.292 238.915,247.896 262.308,227.487 		"/>
		<polygon fill="#758291" points="234.091,276.098 238.915,247.896 224.404,258.227 		"/>
		<polygon fill="#758291" points="258.221,281.46 258.597,258.286 234.091,276.098 		"/>
		<polygon fill="#758291" points="275.651,196.685 286.8,223.379 294.59,216.353 		"/>
		<polygon fill="#758291" points="261.923,201.883 262.293,227.487 286.8,223.381 		"/>
		<polygon fill="#758291" points="286.8,223.379 289.383,242.333 310.549,233.053 		"/>
		<polygon fill="#758291" points="283.87,344.243 280.188,320.425 269.344,338.813 		"/>
	</g>
	<g>
		<polygon fill="#605E5C" points="222.604,209.673 224.417,188.531 202.175,207.076 		"/>
		<polygon fill="#605E5C" points="269.731,144.363 265.213,125.416 250.789,138.8 		"/>
		<polygon fill="#605E5C" points="245.595,158.835 243.476,172.162 262.678,164.773 		"/>
		<polygon fill="#605E5C" points="261.937,201.883 263.05,181.474 245.965,186.296 		"/>
		<polygon fill="#605E5C" points="173.13,223.477 163.786,238.829 184.16,237.158 		"/>
		<polygon fill="#605E5C" points="162.02,293.078 162.02,316.312 182.823,304.695 		"/>
		<polygon fill="#605E5C" points="240.398,222.292 245.965,186.296 222.587,209.673 		"/>
		<polygon fill="#605E5C" points="262.308,227.487 261.937,201.883 240.398,222.292 		"/>
		<polygon fill="#605E5C" points="238.915,247.896 240.398,222.292 214.794,239.732 		"/>
		<polygon fill="#605E5C" points="234.091,276.098 244.852,295.022 258.221,281.46 		"/>
		<polygon fill="#605E5C" points="262.293,227.487 258.583,258.286 289.383,242.333 		"/>
		<polygon fill="#605E5C" points="309.437,271.649 314.63,253.462 284.559,265.708 		"/>
		<polygon fill="#605E5C" points="336.287,288.201 337.253,264.966 309.421,271.649 		"/>
	</g>
	<g>
		<polygon fill="#650000" points="162.02,293.078 172.796,266.527 140.427,281.211 		"/>
		<polygon fill="#650000" points="189.814,367.646 195.156,383.664 224.523,370.646 		"/>
		<polygon fill="#BD0000" points="232.679,322.467 231.866,339.614 246.529,325.139 		"/>
		<polygon fill="#650000" points="257.114,413.771 259.018,395.468 234.462,404.498 		"/>
		<polygon fill="#650000" points="238.915,421.191 234.462,404.498 215.535,427.498 		"/>
		<polygon fill="#650000" points="312.086,301.221 309.437,271.649 286.8,293.078 		"/>
		<polygon fill="#650000" points="307.744,369.722 306.338,346.388 280.477,363.674 		"/>
		<polygon fill="#650000" points="336.287,308.335 328.672,340.47 351.242,328.153 		"/>
	</g>
	<g>
		<polygon fill="#FF339A" points="160.449,345.951 162.02,316.312 135.087,331.938 		"/>
		<polygon fill="#FF339A" points="188.482,349.623 189.814,367.646 214.177,354.965 		"/>
		<polygon fill="#FF339A" points="284.559,265.708 286.8,293.078 309.437,271.649 		"/>
		<polygon fill="#FF339A" points="306.338,346.388 306.468,322.484 283.87,344.243 		"/>
		<polygon fill="#FF339A" points="310.536,233.053 314.615,253.462 325.005,249.752 		"/>
		<polygon fill="#FF339A" points="357.679,299.849 349.198,281.46 336.287,288.201 		"/>
		<polygon fill="#FF339A" points="356.328,350.475 351.242,328.153 328.672,340.47 		"/>
	</g>
	<g>
		<polygon fill="#FF7E00" points="162.02,362.775 160.449,345.951 145.431,348.621 		"/>
		<polygon fill="#FF7E00" points="182.807,304.695 184.81,325.595 213.844,306.906 		"/>
		<polygon fill="#FFCF00" points="213.844,306.906 215.512,335.942 232.694,322.467 		"/>
		<polygon fill="#FF7E00" points="244.852,295.022 258.954,318.033 269.392,307.742 		"/>
		<polygon fill="#FF7E00" points="248.565,386.678 234.462,404.498 259.018,395.468 		"/>
		<polygon fill="#FF7E00" points="258.583,258.286 258.202,281.46 284.559,265.708 		"/>
		<polygon fill="#FF7E00" points="286.8,293.078 280.188,320.425 312.086,301.221 		"/>
		<polygon fill="#FF7E00" points="280.477,363.674 283.87,344.243 270.086,353.282 		"/>
		<polygon fill="#FF7E00" points="301.644,392.62 307.744,369.722 286.8,386.01 		"/>
		<polygon fill="#FF7E00" points="336.287,308.335 336.287,288.201 312.072,301.221 		"/>
		<polygon fill="#FF7E00" points="306.453,322.484 306.322,346.388 328.672,340.47 		"/>
		<polygon fill="#FF7E00" points="328.672,340.47 333.342,357.836 356.328,350.475 		"/>
	</g>
	<g>
		<polygon fill="#ED0000" points="182.823,304.695 182.823,281.46 162.02,293.078 		"/>
		<polygon fill="#ED0000" points="132.082,313.58 135.087,331.938 162.02,316.312 		"/>
		<polygon fill="#ED0000" points="184.828,325.595 182.823,304.695 162.02,316.312 		"/>
		<polygon fill="#ED0000" points="135.087,331.938 145.431,348.621 160.449,345.951 		"/>
		<polygon fill="#ED0000" points="188.498,349.623 184.828,325.595 160.449,345.951 		"/>
		<polygon fill="#ED0000" points="189.832,367.646 188.498,349.623 162.02,362.775 		"/>
		<polygon fill="#ED0000" points="195.171,383.664 189.832,367.646 178.137,374.318 		"/>
		<polygon fill="#ED0000" points="231.759,301.359 219.533,284.213 207.505,286.882 		"/>
		<polygon fill="#ED0000" points="215.512,335.942 213.844,306.906 184.81,325.595 		"/>
		<polygon fill="#ED0000" points="231.882,339.614 232.694,322.467 215.512,335.942 		"/>
		<polygon fill="#ED0000" points="214.177,354.965 215.512,335.942 188.482,349.623 		"/>
		<polygon fill="#ED0000" points="240.225,351.29 231.882,339.614 214.177,354.965 		"/>
		<polygon fill="#ED0000" points="224.523,370.646 214.177,354.965 189.814,367.646 		"/>
		<polygon fill="#ED0000" points="207.505,389.334 224.523,370.646 195.156,383.664 		"/>
		<polygon fill="#FF7E00" points="246.529,325.139 232.679,322.467 232.694,322.467 231.759,301.359 		"/>
		<polygon fill="#ED0000" points="248.22,338.275 246.529,325.139 231.866,339.614 		"/>
		<polygon fill="#ED0000" points="234.462,404.498 238.915,421.191 257.114,413.771 		"/>
		<polygon fill="#ED0000" points="258.202,281.46 269.375,307.742 286.8,293.078 		"/>
		<polygon fill="#ED0000" points="269.375,307.742 269.344,338.813 280.188,320.425 		"/>
		<polygon fill="#ED0000" points="306.468,322.484 312.086,301.221 280.188,320.425 		"/>
		<polygon fill="#ED0000" points="283.87,344.243 280.477,363.674 306.338,346.388 		"/>
		<polygon fill="#ED0000" points="270.086,353.282 261.18,370.725 280.477,363.674 		"/>
		<polygon fill="#ED0000" points="280.477,363.674 286.8,386.01 307.744,369.722 		"/>
		<polygon fill="#ED0000" points="261.18,370.725 258.999,395.468 286.8,386.01 		"/>
		<polygon fill="#ED0000" points="258.999,395.468 257.099,413.771 280.105,404.12 		"/>
		<polygon fill="#ED0000" points="351.242,328.153 357.679,299.849 336.287,308.335 		"/>
		<polygon fill="#ED0000" points="328.672,340.47 336.287,308.335 306.453,322.484 		"/>
		<polygon fill="#ED0000" points="333.342,357.836 328.672,340.47 306.322,346.388 		"/>
		<polygon fill="#ED0000" points="343.947,363.674 356.328,350.475 333.342,357.836 		"/>
		<polygon fill="#ED0000" points="307.729,369.722 301.629,392.62 327.606,375.923 		"/>
	</g>
	<g>
		<polygon fill="#AEB0B2" points="224.417,188.531 215.55,175.165 202.175,192.975 		"/>
		<polygon fill="#AEB0B2" points="245.595,158.835 250.789,138.8 231.121,157.353 		"/>
		<polygon fill="#AEB0B2" points="243.476,172.162 245.595,158.835 215.535,175.165 		"/>
		<polygon fill="#AEB0B2" points="263.05,181.474 262.678,164.773 243.476,172.162 		"/>
		<polygon fill="#AEB0B2" points="263.034,181.474 261.923,201.881 275.651,196.685 		"/>
		<polygon fill="#AEB0B2" points="163.786,238.829 172.796,266.527 196.841,253.846 		"/>
		<polygon fill="#AEB0B2" points="140.427,281.211 132.082,313.58 162.02,293.078 		"/>
		<polygon fill="#AEB0B2" points="162.02,316.312 160.449,345.951 184.828,325.595 		"/>
		<polygon fill="#AEB0B2" points="214.809,239.732 222.604,209.673 206.259,221.179 		"/>
		<polygon fill="#AEB0B2" points="182.807,281.46 182.807,304.695 207.505,286.882 		"/>
		<polygon fill="#AEB0B2" points="258.597,258.286 262.308,227.487 238.915,247.896 		"/>
		<polygon fill="#AEB0B2" points="269.392,307.742 258.221,281.46 244.852,295.022 		"/>
		<polygon fill="#AEB0B2" points="314.63,253.462 310.549,233.053 289.383,242.333 		"/>
		<polygon fill="#AEB0B2" points="337.253,264.966 325.005,249.752 314.615,253.462 		"/>
		<polygon fill="#AEB0B2" points="357.663,299.849 351.227,328.153 363.229,317.289 		"/>
	</g>
	<g>
		<polygon fill="#BD0000" points="162.02,362.775 178.137,374.318 189.832,367.646 		"/>
		<polygon fill="#BD0000" points="207.505,286.882 213.844,306.906 231.759,301.359 		"/>
		<polygon fill="#650000" points="184.81,325.595 188.482,349.623 215.512,335.942 		"/>
		<polygon points="215.512,335.942 214.177,354.965 231.882,339.614 		"/>
		<polygon fill="#BD0000" points="269.359,338.813 269.392,307.742 258.954,318.033 		"/>
		<polygon fill="#BD0000" points="289.383,242.333 284.559,265.708 314.63,253.462 		"/>
		<polygon fill="#BD0000" points="280.188,320.425 283.87,344.243 306.468,322.484 		"/>
		<polygon fill="#BD0000" points="280.105,404.12 286.8,386.01 258.999,395.468 		"/>
		<polygon fill="#BD0000" points="306.322,346.388 307.729,369.722 333.342,357.836 		"/>
		<polygon fill="#BD0000" points="363.295,334.731 363.229,317.289 351.227,328.153 		"/>
	</g>
	<g>
		<polygon fill="#FFCF00" points="160.449,345.951 162.02,362.775 188.498,349.623 		"/>
		<polygon fill="#FFCF00" points="207.505,286.882 207.505,268.196 182.807,281.46 		"/>
		<polygon fill="#BD0000" points="214.177,354.965 224.523,370.646 240.225,351.29 		"/>
		<polygon fill="#FFCF00" points="259.018,395.468 261.196,370.725 248.565,386.678 		"/>
		<polygon fill="#FFCF00" points="312.072,301.221 306.453,322.484 336.287,308.335 		"/>
		<polygon fill="#FFCF00" points="327.606,375.923 333.342,357.836 307.729,369.722 		"/>
		<polygon fill="#FFCF00" points="351.227,328.153 356.315,350.475 363.295,334.731 		"/>
	</g>
	<g>
		<polygon fill="#464749" points="202.175,192.975 202.175,207.076 224.417,188.531 		"/>
		<polygon fill="#464749" points="250.789,138.8 245.595,158.835 269.731,144.363 		"/>
		<polygon fill="#464749" points="215.535,175.165 224.404,188.531 243.476,172.162 		"/>
		<polygon fill="#464749" points="172.796,266.527 163.786,238.829 149.559,262.568 		"/>
		<polygon fill="#464749" points="182.823,281.46 196.841,253.846 172.796,266.527 		"/>
		<polygon fill="#464749" points="207.505,268.196 207.505,286.882 219.533,284.213 		"/>
		<polygon fill="#464749" points="245.965,186.296 240.398,222.292 261.937,201.883 		"/>
		<polygon fill="#464749" points="222.587,209.673 214.794,239.732 240.398,222.292 		"/>
		<polygon fill="#464749" points="214.794,239.732 224.404,258.227 238.915,247.896 		"/>
		<polygon fill="#464749" points="238.915,247.896 234.091,276.098 258.597,258.286 		"/>
		<polygon fill="#464749" points="231.866,339.614 240.211,351.29 248.22,338.275 		"/>
		<polygon fill="#464749" points="310.549,233.053 294.59,216.353 286.8,223.381 		"/>
		<polygon fill="#464749" points="289.383,242.333 286.8,223.379 262.293,227.487 		"/>
		<polygon fill="#464749" points="286.8,293.078 284.559,265.708 258.202,281.46 		"/>
		<polygon fill="#464749" points="286.8,386.01 280.477,363.674 261.18,370.725 		"/>
		<polygon fill="#464749" points="314.615,253.462 309.421,271.649 337.253,264.966 		"/>
		<polygon fill="#464749" points="309.421,271.649 312.072,301.221 336.287,288.201 		"/>
		<polygon fill="#464749" points="336.287,288.201 336.287,308.335 357.679,299.849 		"/>
		<polygon fill="#464749" points="333.342,357.836 327.606,375.923 343.947,363.674 		"/>
		<polygon fill="#464749" points="265.198,125.416 269.714,144.363 277.136,128.78 		"/>
	</g>
	<g>
		<polygon points="243.476,172.162 245.965,186.296 263.05,181.474 		"/>
		<polygon points="277.136,128.78 286.041,107.627 265.198,125.416 		"/>
		<polygon points="196.828,253.846 182.807,281.46 207.505,268.196 		"/>
		<polygon points="286.8,223.381 275.651,196.685 261.923,201.883 		"/>
		<polygon points="284.559,265.708 289.383,242.333 258.583,258.286 		"/>
		<polygon points="280.188,320.425 286.8,293.078 269.375,307.742 		"/>
		<polygon points="269.344,338.813 270.086,353.282 283.87,344.243 		"/>
		<polygon points="286.8,386.01 280.105,404.12 301.644,392.62 		"/>
		<polygon points="337.253,264.966 336.287,288.201 349.198,281.46 		"/>
		<polygon points="224.404,188.531 222.587,209.673 245.965,186.296 		"/>
	</g>
	<g>
		<polygon fill="#FFFF00" points="224.404,188.531 245.965,186.296 243.476,172.162 		"/>
	</g>
</g>
<g>
	<path d="M415.938,342.323c-7.604,0-12.669,1.521-15.938,4.791c-3.268,3.267-4.79,8.33-4.79,15.932v36.113
		c0,1.204,0.977,2.184,2.181,2.184c1.205,0,2.182-0.979,2.182-2.184v-36.113c0-6.367,1.114-10.451,3.513-12.85
		c2.396-2.396,6.479-3.512,12.853-3.512c6.37,0,10.456,1.116,12.851,3.512c2.397,2.398,3.512,6.482,3.512,12.85v6.184
		c0,6.372-1.114,10.46-3.512,12.856c-2.395,2.394-6.48,3.507-12.851,3.507h-6.184c-1.203,0-2.181,0.979-2.181,2.182
		c0,1.208,0.978,2.188,2.181,2.188h6.184c7.604,0,12.666-1.532,15.934-4.794c3.271-3.271,4.794-8.332,4.794-15.938v-6.184
		c0-7.602-1.523-12.665-4.794-15.932C428.604,343.844,423.542,342.323,415.938,342.323z"/>
	<path d="M434.474,278.594H415.93c-7.608,0-12.669,1.521-15.938,4.79c-3.268,3.269-4.792,8.332-4.792,15.936v24.73
		c0,1.2,0.979,2.177,2.183,2.177s2.179-0.977,2.179-2.177v-21.627h22.55c1.203,0,2.18-0.97,2.18-2.179c0-1.2-0.977-2.179-2.18-2.179
		h-22.531c0.141-5.658,1.261-9.365,3.495-11.598c2.4-2.4,6.482-3.512,12.855-3.512h18.544c1.206,0,2.18-0.979,2.18-2.181
		C436.653,279.568,435.68,278.594,434.474,278.594z"/>
	<path d="M476.821,321.864h-18.854c-6.373,0-10.456-1.116-12.855-3.514c-2.393-2.396-3.514-6.48-3.514-12.851v-3.077h22.546
		c1.21,0,2.186-0.97,2.186-2.179c0-1.2-0.976-2.179-2.186-2.179h-22.527c0.139-5.658,1.261-9.365,3.495-11.598
		c2.399-2.4,6.482-3.512,12.855-3.512h18.545c1.205,0,2.179-0.979,2.179-2.181c0-1.207-0.974-2.181-2.179-2.181h-18.545
		c-7.605,0-12.669,1.521-15.939,4.79c-3.267,3.269-4.788,8.332-4.788,15.936v6.181c0,7.601,1.521,12.668,4.788,15.935
		c3.271,3.271,8.334,4.792,15.939,4.792h18.854c1.202,0,2.179-0.977,2.179-2.177C479,322.841,478.023,321.864,476.821,321.864z"/>
	<path d="M621.676,385.593h-18.854c-6.375,0-10.456-1.113-12.853-3.507c-2.397-2.396-3.514-6.484-3.514-12.856v-3.071h22.549
		c1.205,0,2.18-0.977,2.18-2.183c0-1.207-0.975-2.18-2.18-2.18h-22.53c0.14-5.657,1.262-9.364,3.495-11.6
		c2.396-2.396,6.478-3.512,12.853-3.512h18.545c1.206,0,2.18-0.977,2.18-2.181c0-1.202-0.974-2.181-2.18-2.181h-18.545
		c-7.603,0-12.67,1.521-15.937,4.791c-3.266,3.267-4.789,8.33-4.789,15.932v6.184c0,7.606,1.523,12.668,4.789,15.938
		c3.267,3.262,8.334,4.794,15.937,4.794h18.854c1.207,0,2.184-0.979,2.184-2.188C623.859,386.571,622.883,385.593,621.676,385.593z"
		/>
	<path d="M504.021,277.971c-7.605,0-12.667,1.524-15.938,4.794c-3.269,3.268-4.789,8.327-4.789,15.936v25.349
		c0,1.2,0.976,2.177,2.182,2.177c1.202,0,2.185-0.977,2.185-2.177v-25.349c0-6.37,1.112-10.456,3.509-12.851
		c2.397-2.4,6.479-3.513,12.853-3.513s10.458,1.113,12.854,3.513c2.398,2.395,3.512,6.48,3.512,12.851v25.654
		c0,1.204,0.976,2.177,2.181,2.177c1.206,0,2.181-0.973,2.181-2.177v-25.654c0-7.609-1.523-12.668-4.791-15.936
		C516.689,279.495,511.626,277.971,504.021,277.971z"/>
	<path d="M534.312,278.594c-1.204,0-2.179,0.975-2.179,2.181v43.275c0,1.2,0.975,2.177,2.179,2.177c1.203,0,2.178-0.977,2.178-2.177
		v-43.275C536.489,279.568,535.515,278.594,534.312,278.594z"/>
	<path d="M551.149,286.468c2.396-2.4,6.481-3.512,12.851-3.512c6.374,0,10.455,1.111,12.853,3.512
		c2.395,2.392,3.512,6.478,3.512,12.852c0,1.202,0.979,2.179,2.184,2.179c1.2,0,2.182-0.977,2.182-2.179
		c0-7.604-1.522-12.667-4.791-15.936c-3.272-3.268-8.332-4.79-15.938-4.79c-7.605,0-12.668,1.521-15.936,4.79
		c-3.269,3.269-4.794,8.332-4.794,15.936v6.181c0,7.601,1.525,12.668,4.794,15.935c3.268,3.271,8.33,4.792,15.936,4.792h18.548
		c1.2,0,2.182-0.977,2.182-2.177c0-1.209-0.981-2.186-2.182-2.186H564c-6.369,0-10.454-1.116-12.851-3.514
		c-2.398-2.396-3.514-6.48-3.514-12.851v-6.181C547.636,292.945,548.751,288.859,551.149,286.468z"/>
	<path d="M632.105,350.196c2.397-2.396,6.479-3.512,12.854-3.512c6.368,0,10.453,1.116,12.85,3.512
		c2.394,2.398,3.513,6.482,3.513,12.85c0,1.209,0.977,2.182,2.18,2.182c1.205,0,2.183-0.973,2.183-2.182
		c0-7.602-1.522-12.665-4.792-15.932c-3.268-3.271-8.33-4.791-15.933-4.791c-7.605,0-12.672,1.521-15.941,4.791
		c-3.267,3.267-4.784,8.33-4.784,15.932v6.184c0,7.606,1.518,12.668,4.784,15.938c3.27,3.262,8.336,4.794,15.941,4.794h18.542
		c1.205,0,2.183-0.979,2.183-2.188c0-1.203-0.978-2.182-2.183-2.182h-18.542c-6.375,0-10.456-1.113-12.854-3.507
		c-2.396-2.396-3.516-6.484-3.516-12.856v-6.184C628.59,356.679,629.709,352.595,632.105,350.196z"/>
	<path d="M462.921,342.323c-7.604,0-12.671,1.521-15.935,4.791c-3.274,3.267-4.793,8.33-4.793,15.932v25.045
		c0,1.198,0.975,2.175,2.179,2.175c1.206,0,2.185-0.977,2.185-2.175v-25.045c0-6.367,1.117-10.451,3.51-12.85
		c2.396-2.396,6.484-3.512,12.854-3.512c6.371,0,10.452,1.116,12.85,3.512c2.4,2.398,3.515,6.482,3.515,12.85
		c0,1.209,0.977,2.182,2.179,2.182c1.207,0,2.182-0.973,2.182-2.182c0-7.602-1.523-12.665-4.791-15.932
		C475.587,343.844,470.524,342.323,462.921,342.323z"/>
	<path d="M573.21,342.015c-1.208,0-2.183,0.975-2.183,2.181v25.034c0,6.372-1.116,10.46-3.511,12.856
		c-2.399,2.394-6.48,3.507-12.855,3.507c-6.372,0-10.453-1.113-12.851-3.507c-2.396-2.396-3.514-6.484-3.514-12.856
		c0-1.202-0.977-2.182-2.179-2.182c-1.205,0-2.182,0.979-2.182,2.182c0,7.606,1.521,12.668,4.79,15.938
		c3.267,3.262,8.332,4.794,15.935,4.794c7.607,0,12.671-1.532,15.937-4.794c3.27-3.271,4.791-8.332,4.791-15.938v-25.034
		C575.389,342.989,574.412,342.015,573.21,342.015z"/>
	<path d="M710.807,367.048c-1.203,0-2.179,0.979-2.179,2.182c0,6.372-1.114,10.46-3.511,12.856
		c-2.399,2.394-6.484,3.507-12.855,3.507c-6.367,0-10.455-1.113-12.851-3.507c-2.396-2.396-3.512-6.484-3.512-12.856v-22.545h33.984
		c1.2,0,2.178-0.977,2.178-2.181c0-1.202-0.978-2.181-2.178-2.181h-36.165c-1.205,0-2.185,0.979-2.185,2.181v24.726
		c0,7.606,1.522,12.668,4.791,15.938c3.271,3.262,8.334,4.794,15.937,4.794c7.607,0,12.668-1.532,15.938-4.794
		c3.268-3.271,4.788-8.332,4.788-15.938C712.988,368.027,712.014,367.048,710.807,367.048z"/>
	<path d="M610.991,282.956h18.852c1.208,0,2.185-0.979,2.185-2.181c0-1.207-0.979-2.181-2.185-2.181h-18.852
		c-5.508,0-9.511,0.753-12.597,2.381c-3.313,1.745-5.535,4.49-6.785,8.398c-0.064,0.193-1.51,4.788,1.542,8.98
		c3.003,4.141,9.11,6.239,18.147,6.239c0.004,0,0.006,0,0.01,0c0,0,0.002,0,0.005,0c7.414,0,12.456,1.513,14.586,4.385
		c1.744,2.354,1.001,4.979,0.954,5.139c-1.495,4.65-4.661,7.748-15.229,7.748h-18.871c-1.203,0-2.18,0.977-2.18,2.186
		c0,1.2,0.977,2.177,2.18,2.177h18.871c5.505,0,9.508-0.756,12.594-2.381c3.314-1.743,5.535-4.495,6.786-8.401
		c0.065-0.195,1.509-4.785-1.542-8.984c-3.006-4.137-9.11-6.235-18.148-6.235c-0.003,0-0.005,0.002-0.005,0.002
		c-0.004,0-0.006-0.002-0.01-0.002c-7.409,0-12.456-1.515-14.584-4.384c-1.746-2.353-1.005-4.98-0.954-5.14
		C597.256,286.051,600.42,282.956,610.991,282.956z"/>
	<path d="M508.952,342.323c-7.604,0-12.669,1.521-15.936,4.791c-3.267,3.267-4.79,8.33-4.79,15.932v6.184
		c0,7.606,1.523,12.668,4.79,15.938c3.267,3.262,8.332,4.794,15.936,4.794c7.604,0,12.668-1.532,15.937-4.794
		c3.267-3.271,4.795-8.332,4.795-15.938v-6.184c0-7.602-1.528-12.665-4.795-15.932C521.62,343.844,516.557,342.323,508.952,342.323z
		 M525.318,369.229c0,6.372-1.117,10.46-3.516,12.856c-2.396,2.394-6.479,3.507-12.851,3.507c-6.369,0-10.456-1.113-12.851-3.507
		c-2.399-2.396-3.519-6.484-3.519-12.856v-6.184c0-6.367,1.119-10.451,3.519-12.85c2.395-2.396,6.481-3.512,12.851-3.512
		c6.371,0,10.455,1.116,12.851,3.512c2.398,2.398,3.516,6.482,3.516,12.85V369.229z"/>
</g>
<circle cx="534.292" cy="268.363" r="2.708"/>
</svg>
